<svg width="21" height="21" viewBox="0 0 21 21" fill="none" xmlns="http://www.w3.org/2000/svg">
<path d="M16.7139 7.41389C16.4139 7.10833 15.6833 6.62778 15.4306 6.28333C15.1778 5.94167 14.9361 5.10833 14.7333 4.73333C14.1722 3.68889 12.6722 3.57778 11.7195 4.28055L11.3695 4.54167C10.4167 5.24444 10.0472 6.74722 10.9167 7.55278C11.2361 7.85 11.975 8.33611 12.2333 8.68611C12.4889 9.03333 12.7111 9.84444 12.8972 10.2333C13.4111 11.3 14.9583 11.3889 15.9111 10.6861L16.2611 10.425C17.2139 9.72222 17.5472 8.25555 16.7139 7.41389ZM16.0833 8.93333C16.0548 9.11119 15.9914 9.28168 15.8969 9.43505C15.8024 9.58842 15.6787 9.72166 15.5327 9.82717C15.3866 9.93268 15.2213 10.0084 15.046 10.05C14.8707 10.0915 14.689 10.0981 14.5111 10.0694C13.7639 9.95 13.3333 9.25555 13.375 8.5C13.4222 7.62222 12.6722 7.63333 12.6722 7.63333C12.313 7.57538 11.9913 7.37734 11.7778 7.08262C11.5643 6.7879 11.4764 6.42055 11.5333 6.06111C11.6556 5.31389 12.3583 4.80555 13.1056 4.925C13.8528 5.04444 14.3639 5.74722 14.2417 6.49722C14.2417 6.49722 14.0445 7.33611 14.9472 7.36111C15.7028 7.38333 16.2028 8.18611 16.0833 8.93333Z" fill="#3F3F3F"/>
<path d="M7.05583 14.8456L6.44527 14.2764L12.7917 9.5925L11.4833 7.96667L3.52777 14.0433L4.57027 15.5367L5.34527 14.9406L5.92666 15.6317L5.17416 16.2608L6.07249 17.3492L6.69138 16.8533C6.69138 16.8533 6.81805 15.8722 7.80805 15.9825L8.4636 15.4261L7.65027 14.3983L7.05583 14.8456Z" fill="#3F3F3F"/>
<path d="M11.767 10.1L6.39002 14.1611L6.98919 14.8844L7.57252 14.4439L8.3703 15.4558L7.72752 16.0036C6.75613 15.8953 6.63197 16.8611 6.63197 16.8611L6.02474 17.3492L5.14335 16.2775L5.88169 15.6583L5.31113 14.9778L4.55113 15.5647L3.52808 14.3036L10.8003 8.80972" stroke="black" stroke-width="2" stroke-miterlimit="10" stroke-linecap="round" stroke-linejoin="round"/>
<path d="M16.7139 7.41389C16.4139 7.10833 15.6833 6.62778 15.4306 6.28333C15.1778 5.94167 14.9361 5.10833 14.7333 4.73333C14.1722 3.68889 12.6722 3.57778 11.7195 4.28055L11.3695 4.54167C10.4167 5.24444 10.0472 6.74722 10.9167 7.55278C11.2361 7.85 11.975 8.33611 12.2333 8.68611C12.4889 9.03333 12.7111 9.84444 12.8972 10.2333C13.4111 11.3 14.9583 11.3889 15.9111 10.6861L16.2611 10.425C17.2139 9.72222 17.5472 8.25555 16.7139 7.41389ZM16.0833 8.93333C16.0548 9.11119 15.9914 9.28168 15.8969 9.43505C15.8024 9.58842 15.6787 9.72166 15.5327 9.82717C15.3866 9.93268 15.2213 10.0084 15.046 10.05C14.8707 10.0915 14.689 10.0981 14.5111 10.0694C13.7639 9.95 13.3333 9.25555 13.375 8.5C13.4222 7.62222 12.6722 7.63333 12.6722 7.63333C12.313 7.57538 11.9913 7.37734 11.7778 7.08262C11.5643 6.7879 11.4764 6.42055 11.5333 6.06111C11.6556 5.31389 12.3583 4.80555 13.1056 4.925C13.8528 5.04444 14.3639 5.74722 14.2417 6.49722C14.2417 6.49722 14.0445 7.33611 14.9472 7.36111C15.7028 7.38333 16.2028 8.18611 16.0833 8.93333Z" stroke="black" stroke-width="2" stroke-miterlimit="10"/>
</svg>
